<?xml version="1.0" encoding="utf-8"?>
<!-- Generator: Adobe Illustrator 16.0.0, SVG Export Plug-In . SVG Version: 6.00 Build 0)  -->
<!DOCTYPE svg PUBLIC "-//W3C//DTD SVG 1.1//EN" "http://www.w3.org/Graphics/SVG/1.1/DTD/svg11.dtd">
<svg version="1.1" id="Capa_1" xmlns="http://www.w3.org/2000/svg" xmlns:xlink="http://www.w3.org/1999/xlink" x="0px" y="0px"
	 width="20.375px" height="20.375px" viewBox="0 0 20.375 20.375" enable-background="new 0 0 20.375 20.375" xml:space="preserve">
<g display="none">
	<g display="inline">
		<path fill="#59876A" d="M10.001,491.622C4.487,491.622,0,496.107,0,501.623s4.487,10.002,10.001,10.002
			c5.515,0,10.001-4.486,10.001-10.002S15.516,491.622,10.001,491.622z M10.001,510.957c-5.147,0-9.335-4.188-9.335-9.334
			s4.188-9.334,9.335-9.334c5.147,0,9.335,4.188,9.335,9.334C19.336,506.771,15.148,510.957,10.001,510.957z"/>
		<path fill="#59876A" d="M10.001,493.623c-0.184,0-0.334,0.146-0.334,0.332v7.668h-5c-0.184,0-0.333,0.148-0.333,0.334
			c0,0.184,0.149,0.334,0.333,0.334h5.334c0.184,0,0.334-0.15,0.334-0.334v-8.002C10.335,493.771,10.186,493.623,10.001,493.623z"/>
	</g>
</g>
<g>
	<g>
		<path fill="#FFFFFF" d="M19.365,506.183c-0.051-0.098-0.141-0.166-0.247-0.188c-0.027-0.005-2.179-0.479-4.918-0.859
			c-0.005-0.013-0.007-0.022-0.013-0.037c-1.209-2.819-1.608-2.819-1.823-2.819c-0.259,0-1.548,0.266-2.596,0.489v-2.714
			c0.016,0,0.031-0.001,0.047-0.003c0.359,0.097,0.724,0.144,1.085,0.144c1.097,0,2.164-0.433,2.966-1.233
			c1.112-1.11,1.508-2.732,1.036-4.232c-0.036-0.115-0.127-0.205-0.242-0.242c-1.5-0.474-3.123-0.076-4.234,1.036
			c-0.174,0.173-0.327,0.358-0.464,0.555c-0.139-1.097-0.635-2.138-1.449-2.952c-1.343-1.343-3.304-1.822-5.117-1.252
			c-0.115,0.036-0.206,0.126-0.242,0.241c-0.571,1.813-0.091,3.774,1.252,5.119c0.969,0.969,2.26,1.486,3.584,1.486
			c0.345,0,0.692-0.036,1.036-0.106v4.317c-0.143,0.03-0.271,0.061-0.375,0.083c-0.775-0.149-2.053-0.314-2.482,0.115l-0.68,0.681
			l-1.029,0.343c-1.25,0.417-1.678,2.264-1.726,2.482c-0.424-0.255-0.843-0.562-1.246-0.923c-0.069-0.062-0.157-0.096-0.248-0.096
			c-0.82,0-1.112,0.398-1.112,0.741c0,0.105,0,0.307,0.779,1.211c0.302,0.348,0.936,1.047,1.804,1.804
			c1.335,1.162,3.32,2.547,5.203,2.547c2.169,0,3.719-0.457,4.852-0.79c0.613-0.18,1.098-0.321,1.45-0.321
			c1.13,0,3.306-0.36,3.399-0.378c0.127-0.021,0.234-0.106,0.283-0.227l1.481-3.708C19.423,506.392,19.417,506.278,19.365,506.183z
			 M10.951,496.044c0.869-0.869,2.117-1.208,3.299-0.907c0.3,1.183-0.038,2.432-0.908,3.299c-0.794,0.797-1.906,1.146-2.996,0.97
			c0.301-0.499,0.724-1.072,1.071-1.245c0.183-0.092,0.257-0.314,0.165-0.497c-0.091-0.183-0.314-0.258-0.497-0.166
			c-0.433,0.216-0.841,0.714-1.145,1.163C9.893,497.696,10.248,496.747,10.951,496.044z M7.338,495.911
			c0.973,0.646,1.324,1.985,1.329,2.007c0.001,0.001,0.001,0.002,0.001,0.002c-1.358,0.215-2.745-0.223-3.738-1.215
			c-1.101-1.102-1.522-2.688-1.123-4.183c1.494-0.397,3.081,0.022,4.182,1.124c0.961,0.961,1.404,2.29,1.236,3.607
			c-0.214-0.544-0.664-1.419-1.475-1.961c-0.171-0.114-0.4-0.067-0.515,0.104C7.122,495.567,7.168,495.798,7.338,495.911z
			 M3.458,506.8c0.091-0.459,0.492-1.697,1.237-1.946l1.112-0.369c0.054-0.021,0.104-0.051,0.145-0.092l0.735-0.734
			c0.182-0.112,1.081-0.066,1.896,0.096c0.051,0.011,0.102,0.009,0.153-0.001c1.474-0.328,3.11-0.67,3.542-0.726
			c0.215,0.235,0.678,1.129,1.066,1.996c-0.43-0.055-0.869-0.104-1.314-0.147c-3.684-0.369-5.804-0.051-6.301,0.943
			c-0.1,0.199-0.094,0.418,0.018,0.597c0.307,0.497,1.396,0.682,4.021,0.682c0.373,0,0.547,0.1,0.582,0.184
			c0.031,0.075-0.007,0.193-0.091,0.286c-0.19,0.111-1.439,0.473-3.24,0.358c-1.014-0.064-2.335-0.295-3.654-0.947
			C3.411,506.929,3.444,506.868,3.458,506.8z M17.289,509.731c-0.572,0.089-2.195,0.33-3.072,0.33c-0.459,0-0.988,0.156-1.66,0.354
			c-1.089,0.319-2.581,0.76-4.643,0.76c-1.604,0-3.371-1.221-4.572-2.243c-1.278-1.088-2.148-2.146-2.41-2.536
			c0.051-0.013,0.114-0.024,0.178-0.033c2.018,1.754,4.368,2.226,5.998,2.309c1.684,0.087,3.323-0.229,3.664-0.571
			c0.307-0.306,0.412-0.749,0.265-1.104c-0.099-0.24-0.395-0.641-1.267-0.641c-2.31,0-3.075-0.161-3.319-0.286
			c0.235-0.268,1.247-0.884,5.507-0.457c2.879,0.287,5.561,0.806,6.574,1.016L17.289,509.731z"/>
	</g>
</g>
<g display="none">
	<path display="inline" fill="#173017" d="M19.291,2.291c-0.101,0-0.196,0.019-0.288,0.05c-0.066-0.405-0.419-0.716-0.843-0.716
		c-0.216,0-0.413,0.081-0.564,0.214c-0.15-0.134-0.348-0.214-0.565-0.214c-0.422,0-0.775,0.311-0.841,0.716
		c-0.091-0.032-0.188-0.05-0.288-0.05c-0.437,0-0.797,0.328-0.848,0.751h-9.51c-0.16,0-0.29,0.129-0.29,0.289s0.13,0.29,0.29,0.29
		h9.503v0.347c-0.462,0-11.157,0-11.704,0V3.62h1.043c0.16,0,0.29-0.13,0.29-0.29s-0.13-0.289-0.29-0.289H3.308
		C3.259,2.951,3.163,2.889,3.053,2.889c-0.11,0-0.206,0.062-0.255,0.152H1.973C1.924,2.951,1.829,2.889,1.718,2.889
		c-0.111,0-0.206,0.062-0.255,0.152H0.918c-0.299,0-0.543,0.243-0.543,0.542v0.419c0,0.3,0.244,0.543,0.543,0.543h0.545
		c0.049,0.09,0.144,0.151,0.254,0.151c0.11,0,0.206-0.062,0.254-0.151h0.825c0.049,0.09,0.146,0.151,0.255,0.151
		c0.109,0,0.206-0.062,0.255-0.151h1.066c-0.053,0.12-0.083,0.252-0.083,0.392v0.599H4.147c-0.16,0-0.29,0.129-0.29,0.29
		c0,0.152,0.118,0.276,0.267,0.288l-0.58,1.23C3.123,8.24,3.452,9.303,4.291,9.786v6.504c0,0.76,0.619,1.379,1.378,1.379h7.358
		c0.76,0,1.379-0.619,1.379-1.379V9.786c0.839-0.482,1.168-1.546,0.745-2.441l-0.579-1.23c0.149-0.011,0.267-0.136,0.267-0.288
		c0-0.161-0.129-0.29-0.29-0.29h-0.143V4.938c0-0.14-0.031-0.272-0.084-0.392h0.731c0.051,0.422,0.411,0.75,0.848,0.75
		c0.1,0,0.197-0.018,0.288-0.049c0.065,0.404,0.419,0.715,0.841,0.715c0.218,0,0.415-0.081,0.565-0.214
		c0.151,0.133,0.349,0.214,0.564,0.214c0.424,0,0.776-0.311,0.843-0.715c0.092,0.031,0.188,0.049,0.288,0.049
		c0.47,0,0.854-0.383,0.854-0.854V3.146C20.146,2.674,19.761,2.291,19.291,2.291z M2.764,3.967H2.008V3.62h0.756V3.967z M0.955,3.62
		h0.474v0.347H0.955V3.62z M13.027,17.09H5.669c-0.44,0-0.799-0.358-0.799-0.8V9.989c0.101,0.017,0.205,0.024,0.317,0.024
		c0.022,0,0.044-0.001,0.066-0.002v5.932c0,0.42,0.343,0.764,0.763,0.764h6.663c0.421,0,0.763-0.344,0.763-0.764v-5.932
		c0.123,0.003,0.242,0,0.384-0.022v6.301C13.826,16.731,13.468,17.09,13.027,17.09L13.027,17.09z M13.51,9.435
		c-0.908,0-0.929-0.771-2.081-0.771c-0.299,0-0.56,0.057-0.798,0.175c-0.143,0.07-0.202,0.244-0.131,0.387
		c0.071,0.144,0.246,0.203,0.388,0.132c0.158-0.078,0.331-0.115,0.541-0.115c0.716,0,0.817,0.431,1.435,0.662v6.039
		c0,0.1-0.082,0.185-0.184,0.185H6.017c-0.101,0-0.184-0.085-0.184-0.185V9.904c0.618-0.231,0.719-0.662,1.435-0.662
		c0.894,0,0.939,0.771,2.081,0.771c0.172,0,0.328-0.019,0.478-0.057c0.155-0.039,0.249-0.196,0.208-0.353
		C9.995,9.45,9.838,9.356,9.683,9.396C9.581,9.421,9.471,9.435,9.348,9.435c-0.895,0-0.939-0.771-2.081-0.771
		c-1.005,0-1.178,0.606-1.789,0.741c-0.28,0.062-0.622,0.031-0.875-0.107C4.006,8.971,3.771,8.223,4.068,7.592l0.697-1.476h9.167
		l0.696,1.476C15.005,8.389,14.517,9.435,13.51,9.435L13.51,9.435z M13.826,4.938v0.599H4.871V4.938
		c0-0.217,0.176-0.392,0.393-0.392h8.171C13.65,4.546,13.826,4.721,13.826,4.938L13.826,4.938z M15.901,4.717
		c-0.152,0-0.276-0.124-0.276-0.276c0-0.27,0-1.025,0-1.296c0-0.152,0.124-0.275,0.276-0.275s0.275,0.124,0.275,0.275v1.296
		C16.177,4.594,16.054,4.717,15.901,4.717z M17.03,5.383c-0.152,0-0.274-0.124-0.274-0.276c0-0.6,0-2.018,0-2.628
		c0-0.152,0.122-0.275,0.274-0.275c0.151,0,0.275,0.124,0.275,0.275v2.628C17.306,5.26,17.182,5.383,17.03,5.383z M18.436,5.107
		c0,0.152-0.124,0.276-0.275,0.276s-0.275-0.124-0.275-0.276V2.479c0-0.152,0.124-0.275,0.275-0.275s0.275,0.124,0.275,0.275V5.107z
		 M19.566,4.441c0,0.152-0.124,0.276-0.275,0.276c-0.152,0-0.274-0.124-0.274-0.276V3.146c0-0.152,0.122-0.275,0.274-0.275
		c0.151,0,0.275,0.124,0.275,0.275V4.441z"/>
</g>
<g display="none">
	<path display="inline" fill="#173017" d="M18.082,3.736l-4.27-2.465l-3.725,2.15l-3.725-2.15L2.094,3.736v4.929l3.726,2.15v4.301
		l2.194,1.269c0.273,0.157,0.443,0.451,0.443,0.767v1.051c0,0.901,0.732,1.633,1.631,1.633c0.9,0,1.632-0.731,1.632-1.633V17.15
		c0-0.315,0.17-0.609,0.445-0.767l2.192-1.269v-4.301l3.725-2.15V3.736L18.082,3.736z M3.182,4.363l3.181-1.836l3.181,1.836v3.673
		L6.363,9.873L3.182,8.037V4.363L3.182,4.363z M11.62,15.441c-0.609,0.351-0.988,1.007-0.988,1.709v1.051
		c0,0.301-0.244,0.545-0.544,0.545c-0.299,0-0.543-0.244-0.543-0.545V17.15c0-0.702-0.378-1.358-0.988-1.709l-1.649-0.953v-3.674
		l3.181-1.836l3.182,1.836v3.674L11.62,15.441z M16.994,8.037l-3.182,1.836l-3.18-1.836V4.363l3.18-1.836l3.182,1.836V8.037
		L16.994,8.037z"/>
	<path display="inline" fill="#173017" d="M11.761,5.015v2.369l2.052,1.185l2.053-1.185V5.015L13.812,3.83L11.761,5.015z
		 M14.778,6.756l-0.966,0.557l-0.962-0.557V5.643l0.962-0.556l0.966,0.556V6.756z"/>
	<path display="inline" fill="#173017" d="M8.036,11.468v2.369l2.052,1.185l2.053-1.185v-2.369l-2.053-1.185L8.036,11.468z
		 M11.054,13.208l-0.966,0.559l-0.964-0.559v-1.113l0.964-0.557l0.966,0.557V13.208z"/>
	<path display="inline" fill="#173017" d="M8.416,7.384V5.015L6.363,3.83L4.311,5.015v2.369l2.052,1.185L8.416,7.384z M5.399,5.643
		l0.964-0.556l0.964,0.556v1.113L6.363,7.312L5.399,6.756V5.643z"/>
</g>
<path fill="#173017" d="M16.428,7.157h-1.982c-0.261-1.931-1.781-3.467-3.703-3.753c0.135-0.628,0.817-2.033,2.519-2.033
	c0.326,0,0.591-0.265,0.591-0.591s-0.265-0.591-0.592-0.591c-1.394,0-2.53,0.743-3.166,1.732C9.456,0.929,8.318,0.188,6.926,0.188
	c-0.327,0-0.591,0.265-0.591,0.591S6.6,1.371,6.926,1.371c1.7,0,2.383,1.404,2.518,2.033C7.522,3.689,6.002,5.226,5.741,7.157H3.759
	C1.687,7.157,0,8.843,0,10.915c0,2.073,1.687,3.759,3.759,3.759c0.678,0,1.342-0.098,1.974-0.284
	c0.14,1.352,0.734,2.604,1.708,3.579l2.233,2.233c0.116,0.115,0.267,0.173,0.418,0.173c0.151,0,0.302-0.058,0.418-0.173l2.233-2.233
	c0.974-0.975,1.568-2.228,1.708-3.579c0.633,0.187,1.296,0.284,1.975,0.284c2.072,0,3.759-1.686,3.759-3.759
	C20.187,8.843,18.5,7.157,16.428,7.157L16.428,7.157z M10.094,4.539c1.567,0,2.876,1.13,3.154,2.618h-6.31
	C7.217,5.668,8.526,4.539,10.094,4.539z M3.759,13.491c-1.42,0-2.576-1.155-2.576-2.576c0-1.42,1.156-2.576,2.576-2.576h5.713
	C9.18,11.214,6.753,13.491,3.759,13.491L3.759,13.491z M10.094,10.558c0.232,0.523,0.711,1.431,1.658,2.299H8.434
	C9.382,11.988,9.862,11.08,10.094,10.558z M11.908,17.133l-1.814,1.814l-1.815-1.814c-0.176-0.176-0.336-0.362-0.479-0.559h4.587
	C12.243,16.771,12.084,16.957,11.908,17.133z M13.02,15.392H7.167c-0.155-0.431-0.249-0.885-0.275-1.352h6.403
	C13.268,14.507,13.175,14.961,13.02,15.392z M16.428,13.491c-2.995,0-5.421-2.277-5.713-5.152h5.713
	c1.421,0,2.576,1.155,2.576,2.576C19.004,12.336,17.849,13.491,16.428,13.491z"/>
</svg>
