<?xml version="1.0" encoding="utf-8"?>
<!-- Generator: Adobe Illustrator 16.0.0, SVG Export Plug-In . SVG Version: 6.00 Build 0)  -->
<!DOCTYPE svg PUBLIC "-//W3C//DTD SVG 1.1//EN" "http://www.w3.org/Graphics/SVG/1.1/DTD/svg11.dtd">
<svg version="1.1" id="Layer_1" xmlns="http://www.w3.org/2000/svg" xmlns:xlink="http://www.w3.org/1999/xlink" x="0px" y="0px"
	 width="29.593px" height="29.834px" viewBox="0 0 29.593 29.834" enable-background="new 0 0 29.593 29.834" xml:space="preserve">
<g>
	<g>
		<path fill="#173017" d="M17.712,4.66C11.759,4.943,7.061,9.901,7.079,15.86c0.005,1.815,0.443,3.529,1.217,5.043L7.11,26.665
			c-0.065,0.312,0.216,0.585,0.526,0.511l5.646-1.337c1.451,0.723,3.08,1.141,4.803,1.166c6.084,0.094,11.158-4.738,11.349-10.82
			C29.636,9.664,24.255,4.349,17.712,4.66z M24.449,22.017c-1.654,1.652-3.852,2.563-6.189,2.563c-1.369,0-2.68-0.308-3.896-0.913
			l-0.786-0.393l-3.462,0.82l0.729-3.537L10.456,19.8c-0.631-1.236-0.951-2.572-0.951-3.974c0-2.338,0.91-4.537,2.564-6.19
			c1.638-1.639,3.873-2.564,6.19-2.564c2.338,0,4.535,0.911,6.189,2.564c1.652,1.653,2.562,3.852,2.563,6.189
			C27.012,18.144,26.087,20.377,24.449,22.017z"/>
		<path fill="#173017" d="M23.684,18.25l-2.166-0.622c-0.285-0.082-0.591-0.001-0.8,0.21l-0.528,0.54
			c-0.224,0.229-0.562,0.301-0.858,0.182c-1.023-0.416-3.179-2.332-3.729-3.29c-0.159-0.277-0.133-0.622,0.062-0.875l0.461-0.598
			c0.183-0.234,0.221-0.549,0.101-0.82l-0.911-2.06c-0.218-0.494-0.849-0.638-1.261-0.289c-0.604,0.511-1.321,1.288-1.409,2.148
			c-0.154,1.518,0.497,3.43,2.957,5.727c2.843,2.653,5.12,3.003,6.602,2.645c0.84-0.203,1.512-1.02,1.937-1.688
			C24.431,19.005,24.203,18.399,23.684,18.25z"/>
	</g>
</g>
</svg>
